<?xml version="1.0" encoding="UTF-8" standalone="no"?>
<!DOCTYPE svg PUBLIC "-//W3C//DTD SVG 1.1//EN"
 "http://www.w3.org/Graphics/SVG/1.1/DTD/svg11.dtd">
<!-- Generated by graphviz version 2.43.0 (0)
 -->
<!-- Title: btog Pages: 1 -->
<svg width="512pt" height="398pt"
 viewBox="0.00 0.00 512.00 398.00" xmlns="http://www.w3.org/2000/svg" xmlns:xlink="http://www.w3.org/1999/xlink">
<g id="graph0" class="graph" transform="scale(1 1) rotate(0) translate(4 394)">
<title>btog</title>
<polygon fill="white" stroke="transparent" points="-4,4 -4,-394 508,-394 508,4 -4,4"/>
<text text-anchor="middle" x="252" y="-7.8" font-family="Times,serif" font-size="14.00">btog</text>
<!-- n1 -->
<g id="node1" class="node">
<title>n1</title>
<polygon fill="none" stroke="black" points="54,-199.04 54,-213.96 38.18,-224.5 15.82,-224.5 0,-213.96 0,-199.04 15.82,-188.5 38.18,-188.5 54,-199.04"/>
<text text-anchor="middle" x="27" y="-202.8" font-family="Times,serif" font-size="14.00">a</text>
</g>
<!-- x0 -->
<g id="node4" class="node">
<title>x0</title>
<path fill="none" stroke="black" d="M102,-353.5C102,-353.5 153,-353.5 153,-353.5 159,-353.5 165,-359.5 165,-365.5 165,-365.5 165,-377.5 165,-377.5 165,-383.5 159,-389.5 153,-389.5 153,-389.5 102,-389.5 102,-389.5 96,-389.5 90,-383.5 90,-377.5 90,-377.5 90,-365.5 90,-365.5 90,-359.5 96,-353.5 102,-353.5"/>
<text text-anchor="middle" x="127.5" y="-367.8" font-family="Times,serif" font-size="14.00">3:3 &#45; 0:0</text>
</g>
<!-- n1&#45;&gt;x0 -->
<g id="edge11" class="edge">
<title>n1:e&#45;&gt;x0:w</title>
<path fill="none" stroke="black" d="M54,-206.5C125.25,-206.5 26.04,-355.17 79.98,-370.27"/>
<polygon fill="black" stroke="black" points="79.65,-373.75 90,-371.5 80.5,-366.8 79.65,-373.75"/>
</g>
<!-- x1 -->
<g id="node5" class="node">
<title>x1</title>
<path fill="none" stroke="black" d="M102,-298.5C102,-298.5 153,-298.5 153,-298.5 159,-298.5 165,-304.5 165,-310.5 165,-310.5 165,-322.5 165,-322.5 165,-328.5 159,-334.5 153,-334.5 153,-334.5 102,-334.5 102,-334.5 96,-334.5 90,-328.5 90,-322.5 90,-322.5 90,-310.5 90,-310.5 90,-304.5 96,-298.5 102,-298.5"/>
<text text-anchor="middle" x="127.5" y="-312.8" font-family="Times,serif" font-size="14.00">2:2 &#45; 0:0</text>
</g>
<!-- n1&#45;&gt;x1 -->
<g id="edge12" class="edge">
<title>n1:e&#45;&gt;x1:w</title>
<path fill="none" stroke="black" d="M54,-206.5C101.42,-206.5 48.29,-299.98 80,-314.59"/>
<polygon fill="black" stroke="black" points="79.52,-318.06 90,-316.5 80.83,-311.19 79.52,-318.06"/>
</g>
<!-- x3 -->
<g id="node8" class="node">
<title>x3</title>
<path fill="none" stroke="black" d="M102,-243.5C102,-243.5 153,-243.5 153,-243.5 159,-243.5 165,-249.5 165,-255.5 165,-255.5 165,-267.5 165,-267.5 165,-273.5 159,-279.5 153,-279.5 153,-279.5 102,-279.5 102,-279.5 96,-279.5 90,-273.5 90,-267.5 90,-267.5 90,-255.5 90,-255.5 90,-249.5 96,-243.5 102,-243.5"/>
<text text-anchor="middle" x="127.5" y="-257.8" font-family="Times,serif" font-size="14.00">2:2 &#45; 0:0</text>
</g>
<!-- n1&#45;&gt;x3 -->
<g id="edge13" class="edge">
<title>n1:e&#45;&gt;x3:w</title>
<path fill="none" stroke="black" d="M54,-206.5C78.88,-206.5 66.31,-246.38 80.07,-258.22"/>
<polygon fill="black" stroke="black" points="79.41,-261.69 90,-261.5 81.6,-255.04 79.41,-261.69"/>
</g>
<!-- x4 -->
<g id="node9" class="node">
<title>x4</title>
<path fill="none" stroke="black" d="M102,-188.5C102,-188.5 153,-188.5 153,-188.5 159,-188.5 165,-194.5 165,-200.5 165,-200.5 165,-212.5 165,-212.5 165,-218.5 159,-224.5 153,-224.5 153,-224.5 102,-224.5 102,-224.5 96,-224.5 90,-218.5 90,-212.5 90,-212.5 90,-200.5 90,-200.5 90,-194.5 96,-188.5 102,-188.5"/>
<text text-anchor="middle" x="127.5" y="-202.8" font-family="Times,serif" font-size="14.00">1:1 &#45; 0:0</text>
</g>
<!-- n1&#45;&gt;x4 -->
<g id="edge14" class="edge">
<title>n1:e&#45;&gt;x4:w</title>
<path fill="none" stroke="black" d="M54,-206.5C66,-206.5 71.25,-206.5 79.88,-206.5"/>
<polygon fill="black" stroke="black" points="80,-210 90,-206.5 80,-203 80,-210"/>
</g>
<!-- x6 -->
<g id="node12" class="node">
<title>x6</title>
<path fill="none" stroke="black" d="M102,-133.5C102,-133.5 153,-133.5 153,-133.5 159,-133.5 165,-139.5 165,-145.5 165,-145.5 165,-157.5 165,-157.5 165,-163.5 159,-169.5 153,-169.5 153,-169.5 102,-169.5 102,-169.5 96,-169.5 90,-163.5 90,-157.5 90,-157.5 90,-145.5 90,-145.5 90,-139.5 96,-133.5 102,-133.5"/>
<text text-anchor="middle" x="127.5" y="-147.8" font-family="Times,serif" font-size="14.00">1:1 &#45; 0:0</text>
</g>
<!-- n1&#45;&gt;x6 -->
<g id="edge15" class="edge">
<title>n1:e&#45;&gt;x6:w</title>
<path fill="none" stroke="black" d="M54,-206.5C78.88,-206.5 66.31,-166.62 80.07,-154.78"/>
<polygon fill="black" stroke="black" points="81.6,-157.96 90,-151.5 79.41,-151.31 81.6,-157.96"/>
</g>
<!-- x7 -->
<g id="node13" class="node">
<title>x7</title>
<path fill="none" stroke="black" d="M102,-78.5C102,-78.5 153,-78.5 153,-78.5 159,-78.5 165,-84.5 165,-90.5 165,-90.5 165,-102.5 165,-102.5 165,-108.5 159,-114.5 153,-114.5 153,-114.5 102,-114.5 102,-114.5 96,-114.5 90,-108.5 90,-102.5 90,-102.5 90,-90.5 90,-90.5 90,-84.5 96,-78.5 102,-78.5"/>
<text text-anchor="middle" x="127.5" y="-92.8" font-family="Times,serif" font-size="14.00">0:0 &#45; 0:0</text>
</g>
<!-- n1&#45;&gt;x7 -->
<g id="edge16" class="edge">
<title>n1:e&#45;&gt;x7:w</title>
<path fill="none" stroke="black" d="M54,-206.5C101.42,-206.5 48.29,-113.02 80,-98.41"/>
<polygon fill="black" stroke="black" points="80.83,-101.81 90,-96.5 79.52,-94.94 80.83,-101.81"/>
</g>
<!-- x9 -->
<g id="node15" class="node">
<title>x9</title>
<path fill="none" stroke="black" d="M102,-23.5C102,-23.5 153,-23.5 153,-23.5 159,-23.5 165,-29.5 165,-35.5 165,-35.5 165,-47.5 165,-47.5 165,-53.5 159,-59.5 153,-59.5 153,-59.5 102,-59.5 102,-59.5 96,-59.5 90,-53.5 90,-47.5 90,-47.5 90,-35.5 90,-35.5 90,-29.5 96,-23.5 102,-23.5"/>
<text text-anchor="middle" x="127.5" y="-37.8" font-family="Times,serif" font-size="14.00">3:3 &#45; 0:0</text>
</g>
<!-- n1&#45;&gt;x9 -->
<g id="edge17" class="edge">
<title>n1:e&#45;&gt;x9:w</title>
<path fill="none" stroke="black" d="M54,-206.5C125.25,-206.5 26.04,-57.83 79.98,-42.73"/>
<polygon fill="black" stroke="black" points="80.5,-46.2 90,-41.5 79.65,-39.25 80.5,-46.2"/>
</g>
<!-- n2 -->
<g id="node2" class="node">
<title>n2</title>
<polygon fill="none" stroke="black" points="504,-168.04 504,-182.96 488.18,-193.5 465.82,-193.5 450,-182.96 450,-168.04 465.82,-157.5 488.18,-157.5 504,-168.04"/>
<text text-anchor="middle" x="477" y="-171.8" font-family="Times,serif" font-size="14.00">b</text>
</g>
<!-- c6 -->
<g id="node3" class="node">
<title>c6</title>
<polygon fill="none" stroke="black" points="201,-305.5 201,-351.5 303,-351.5 303,-305.5 201,-305.5"/>
<text text-anchor="middle" x="214.5" y="-336.3" font-family="Times,serif" font-size="14.00">A</text>
<polyline fill="none" stroke="black" points="201,-328.5 228,-328.5 "/>
<text text-anchor="middle" x="214.5" y="-313.3" font-family="Times,serif" font-size="14.00">B</text>
<polyline fill="none" stroke="black" points="228,-305.5 228,-351.5 "/>
<text text-anchor="middle" x="252.5" y="-332.3" font-family="Times,serif" font-size="14.00">$1</text>
<text text-anchor="middle" x="252.5" y="-317.3" font-family="Times,serif" font-size="14.00">$xor</text>
<polyline fill="none" stroke="black" points="277,-305.5 277,-351.5 "/>
<text text-anchor="middle" x="290" y="-324.8" font-family="Times,serif" font-size="14.00">Y</text>
</g>
<!-- x2 -->
<g id="node6" class="node">
<title>x2</title>
<path fill="none" stroke="black" d="M351,-272.5C351,-272.5 402,-272.5 402,-272.5 408,-272.5 414,-278.5 414,-284.5 414,-284.5 414,-296.5 414,-296.5 414,-302.5 408,-308.5 402,-308.5 402,-308.5 351,-308.5 351,-308.5 345,-308.5 339,-302.5 339,-296.5 339,-296.5 339,-284.5 339,-284.5 339,-278.5 345,-272.5 351,-272.5"/>
<text text-anchor="middle" x="376.5" y="-286.8" font-family="Times,serif" font-size="14.00">0:0 &#45; 2:2</text>
</g>
<!-- c6&#45;&gt;x2 -->
<g id="edge3" class="edge">
<title>c6:e&#45;&gt;x2:w</title>
<path fill="none" stroke="black" d="M314.12,-323.84C320.7,-316.55 321.29,-302.51 327.84,-295.2"/>
<polygon fill="none" stroke="black" points="314.07,-323.86 310.08,-329.87 303,-328.5 306.99,-322.49 314.07,-323.86"/>
<polygon fill="none" stroke="black" points="327.94,-295.16 331.92,-289.14 339,-290.5 335.02,-296.51 327.94,-295.16"/>
</g>
<!-- x0&#45;&gt;c6 -->
<g id="edge1" class="edge">
<title>x0:e&#45;&gt;c6:w</title>
<path fill="none" stroke="black" d="M176.31,-366.93C181.95,-361.13 183.93,-351.19 189.48,-345.3"/>
<polygon fill="none" stroke="black" points="176.12,-367 172.06,-372.96 165,-371.5 169.06,-365.54 176.12,-367"/>
<polygon fill="none" stroke="black" points="189.92,-345.11 193.92,-339.11 201,-340.5 197,-346.5 189.92,-345.11"/>
</g>
<!-- x1&#45;&gt;c6 -->
<g id="edge2" class="edge">
<title>x1:e&#45;&gt;c6:w</title>
<path fill="none" stroke="black" d="M177.22,-316.5C181.29,-316.5 184.73,-316.5 188.81,-316.5"/>
<polygon fill="none" stroke="black" points="177,-316.5 171,-320.5 165,-316.5 171,-312.5 177,-316.5"/>
<polygon fill="none" stroke="black" points="189,-316.5 195,-312.5 201,-316.5 195,-320.5 189,-316.5"/>
</g>
<!-- x2&#45;&gt;n2 -->
<g id="edge19" class="edge">
<title>x2:e&#45;&gt;n2:w</title>
<path fill="none" stroke="black" d="M414,-290.5C463.58,-290.5 406.31,-191.94 440.03,-177.31"/>
<polygon fill="black" stroke="black" points="440.78,-180.73 450,-175.5 439.54,-173.84 440.78,-180.73"/>
</g>
<!-- c7 -->
<g id="node7" class="node">
<title>c7</title>
<polygon fill="none" stroke="black" points="201,-195.5 201,-241.5 303,-241.5 303,-195.5 201,-195.5"/>
<text text-anchor="middle" x="214.5" y="-226.3" font-family="Times,serif" font-size="14.00">A</text>
<polyline fill="none" stroke="black" points="201,-218.5 228,-218.5 "/>
<text text-anchor="middle" x="214.5" y="-203.3" font-family="Times,serif" font-size="14.00">B</text>
<polyline fill="none" stroke="black" points="228,-195.5 228,-241.5 "/>
<text text-anchor="middle" x="252.5" y="-222.3" font-family="Times,serif" font-size="14.00">$2</text>
<text text-anchor="middle" x="252.5" y="-207.3" font-family="Times,serif" font-size="14.00">$xor</text>
<polyline fill="none" stroke="black" points="277,-195.5 277,-241.5 "/>
<text text-anchor="middle" x="290" y="-214.8" font-family="Times,serif" font-size="14.00">Y</text>
</g>
<!-- x5 -->
<g id="node10" class="node">
<title>x5</title>
<path fill="none" stroke="black" d="M351,-188.5C351,-188.5 402,-188.5 402,-188.5 408,-188.5 414,-194.5 414,-200.5 414,-200.5 414,-212.5 414,-212.5 414,-218.5 408,-224.5 402,-224.5 402,-224.5 351,-224.5 351,-224.5 345,-224.5 339,-218.5 339,-212.5 339,-212.5 339,-200.5 339,-200.5 339,-194.5 345,-188.5 351,-188.5"/>
<text text-anchor="middle" x="376.5" y="-202.8" font-family="Times,serif" font-size="14.00">0:0 &#45; 1:1</text>
</g>
<!-- c7&#45;&gt;x5 -->
<g id="edge6" class="edge">
<title>c7:e&#45;&gt;x5:w</title>
<path fill="none" stroke="black" d="M314.93,-215.96C319.3,-213.92 322.7,-211.08 327.08,-209.04"/>
<polygon fill="none" stroke="black" points="314.74,-216 309.7,-221.16 303,-218.5 308.03,-213.34 314.74,-216"/>
<polygon fill="none" stroke="black" points="327.26,-209 332.3,-203.84 339,-206.5 333.97,-211.66 327.26,-209"/>
</g>
<!-- x3&#45;&gt;c7 -->
<g id="edge4" class="edge">
<title>x3:e&#45;&gt;c7:w</title>
<path fill="none" stroke="black" d="M176.31,-256.93C181.95,-251.13 183.93,-241.19 189.48,-235.3"/>
<polygon fill="none" stroke="black" points="176.12,-257 172.06,-262.96 165,-261.5 169.06,-255.54 176.12,-257"/>
<polygon fill="none" stroke="black" points="189.92,-235.11 193.92,-229.11 201,-230.5 197,-236.5 189.92,-235.11"/>
</g>
<!-- x4&#45;&gt;c7 -->
<g id="edge5" class="edge">
<title>x4:e&#45;&gt;c7:w</title>
<path fill="none" stroke="black" d="M177.22,-206.5C181.29,-206.5 184.73,-206.5 188.81,-206.5"/>
<polygon fill="none" stroke="black" points="177,-206.5 171,-210.5 165,-206.5 171,-202.5 177,-206.5"/>
<polygon fill="none" stroke="black" points="189,-206.5 195,-202.5 201,-206.5 195,-210.5 189,-206.5"/>
</g>
<!-- x5&#45;&gt;n2 -->
<g id="edge20" class="edge">
<title>x5:e&#45;&gt;n2:w</title>
<path fill="none" stroke="black" d="M414,-206.5C430.99,-206.5 430.28,-186.43 440.35,-178.59"/>
<polygon fill="black" stroke="black" points="441.54,-181.88 450,-175.5 439.41,-175.21 441.54,-181.88"/>
</g>
<!-- c8 -->
<g id="node11" class="node">
<title>c8</title>
<polygon fill="none" stroke="black" points="201,-116.5 201,-162.5 303,-162.5 303,-116.5 201,-116.5"/>
<text text-anchor="middle" x="214.5" y="-147.3" font-family="Times,serif" font-size="14.00">A</text>
<polyline fill="none" stroke="black" points="201,-139.5 228,-139.5 "/>
<text text-anchor="middle" x="214.5" y="-124.3" font-family="Times,serif" font-size="14.00">B</text>
<polyline fill="none" stroke="black" points="228,-116.5 228,-162.5 "/>
<text text-anchor="middle" x="252.5" y="-143.3" font-family="Times,serif" font-size="14.00">$3</text>
<text text-anchor="middle" x="252.5" y="-128.3" font-family="Times,serif" font-size="14.00">$xor</text>
<polyline fill="none" stroke="black" points="277,-116.5 277,-162.5 "/>
<text text-anchor="middle" x="290" y="-135.8" font-family="Times,serif" font-size="14.00">Y</text>
</g>
<!-- x8 -->
<g id="node14" class="node">
<title>x8</title>
<path fill="none" stroke="black" d="M351,-130.5C351,-130.5 402,-130.5 402,-130.5 408,-130.5 414,-136.5 414,-142.5 414,-142.5 414,-154.5 414,-154.5 414,-160.5 408,-166.5 402,-166.5 402,-166.5 351,-166.5 351,-166.5 345,-166.5 339,-160.5 339,-154.5 339,-154.5 339,-142.5 339,-142.5 339,-136.5 345,-130.5 351,-130.5"/>
<text text-anchor="middle" x="376.5" y="-144.8" font-family="Times,serif" font-size="14.00">0:0 &#45; 0:0</text>
</g>
<!-- c8&#45;&gt;x8 -->
<g id="edge9" class="edge">
<title>c8:e&#45;&gt;x8:w</title>
<path fill="none" stroke="black" d="M315.08,-141.5C319.3,-142.99 322.71,-145.02 326.93,-146.51"/>
<polygon fill="none" stroke="black" points="314.84,-141.46 308.27,-144.42 303,-139.5 309.57,-136.53 314.84,-141.46"/>
<polygon fill="none" stroke="black" points="327.16,-146.55 333.73,-143.58 339,-148.5 332.43,-151.47 327.16,-146.55"/>
</g>
<!-- x6&#45;&gt;c8 -->
<g id="edge7" class="edge">
<title>x6:e&#45;&gt;c8:w</title>
<path fill="none" stroke="black" d="M177.22,-151.5C181.29,-151.5 184.73,-151.5 188.81,-151.5"/>
<polygon fill="none" stroke="black" points="177,-151.5 171,-155.5 165,-151.5 171,-147.5 177,-151.5"/>
<polygon fill="none" stroke="black" points="189,-151.5 195,-147.5 201,-151.5 195,-155.5 189,-151.5"/>
</g>
<!-- x7&#45;&gt;c8 -->
<g id="edge8" class="edge">
<title>x7:e&#45;&gt;c8:w</title>
<path fill="none" stroke="black" d="M176.31,-101.07C181.95,-106.87 183.93,-116.81 189.48,-122.7"/>
<polygon fill="none" stroke="black" points="176.12,-101 169.06,-102.46 165,-96.5 172.06,-95.04 176.12,-101"/>
<polygon fill="none" stroke="black" points="189.92,-122.89 197,-121.5 201,-127.5 193.92,-128.89 189.92,-122.89"/>
</g>
<!-- x8&#45;&gt;n2 -->
<g id="edge21" class="edge">
<title>x8:e&#45;&gt;n2:w</title>
<path fill="none" stroke="black" d="M414,-148.5C429.94,-148.5 430.63,-165.65 440.38,-172.61"/>
<polygon fill="black" stroke="black" points="439.42,-175.98 450,-175.5 441.43,-169.27 439.42,-175.98"/>
</g>
<!-- x10 -->
<g id="node16" class="node">
<title>x10</title>
<path fill="none" stroke="black" d="M351,-70.5C351,-70.5 402,-70.5 402,-70.5 408,-70.5 414,-76.5 414,-82.5 414,-82.5 414,-94.5 414,-94.5 414,-100.5 408,-106.5 402,-106.5 402,-106.5 351,-106.5 351,-106.5 345,-106.5 339,-100.5 339,-94.5 339,-94.5 339,-82.5 339,-82.5 339,-76.5 345,-70.5 351,-70.5"/>
<text text-anchor="middle" x="376.5" y="-84.8" font-family="Times,serif" font-size="14.00">0:0 &#45; 3:3</text>
</g>
<!-- x9&#45;&gt;x10 -->
<g id="edge10" class="edge">
<title>x9:e&#45;&gt;x10:w</title>
<path fill="none" stroke="black" d="M177.14,-41.88C242.8,-46.07 261.09,-83.84 326.66,-88.11"/>
<polygon fill="none" stroke="black" points="176.99,-41.87 170.87,-45.69 165,-41.5 171.12,-37.69 176.99,-41.87"/>
<polygon fill="none" stroke="black" points="327.01,-88.12 333.13,-84.31 339,-88.5 332.88,-92.31 327.01,-88.12"/>
</g>
<!-- x10&#45;&gt;n2 -->
<g id="edge18" class="edge">
<title>x10:e&#45;&gt;n2:w</title>
<path fill="none" stroke="black" d="M414,-88.5C451.76,-88.5 416.61,-159.34 440.14,-173.17"/>
<polygon fill="black" stroke="black" points="439.46,-176.61 450,-175.5 441.07,-169.8 439.46,-176.61"/>
</g>
</g>
</svg>
